<svg xmlns="http://www.w3.org/2000/svg" viewBox="0 0 100 140" width="100" height="140">
  <polygon data-seg="5" points="78.51,19.00 81.00,19.00 81.00,33.15 63.49,59.00 61.00,59.00 61.00,44.85" fill="#111111"/>
  <polygon data-seg="A" points="36.51,81.00 39.00,81.00 39.00,95.15 21.49,121.00 19.00,121.00 19.00,106.85" fill="#111111"/>
  <polygon data-seg="D" points="92.00,76.00 87.00,81.00 87.00,121.00 92.00,126.00 97.00,121.00 97.00,81.00" fill="#111111"/>
  <polygon data-seg="E" points="14.00,132.00 19.00,137.00 39.00,137.00 44.00,132.00 39.00,127.00 19.00,127.00" fill="#111111"/>
  <polygon data-seg="F" points="56.00,132.00 61.00,137.00 81.00,137.00 86.00,132.00 81.00,127.00 61.00,127.00" fill="#111111"/>
</svg>
