<svg xmlns="http://www.w3.org/2000/svg" viewBox="0 0 100 140" width="100" height="140">
  <polygon data-seg="1" points="57.50,8.00 62.50,13.00 79.50,13.00 84.50,8.00 79.50,3.00 62.50,3.00" fill="#111111"/>
  <polygon data-seg="6" points="92.00,15.50 87.00,20.50 87.00,57.50 92.00,62.50 97.00,57.50 97.00,20.50" fill="#111111"/>
  <polygon data-seg="8" points="57.50,70.00 62.50,75.00 79.50,75.00 84.50,70.00 79.50,65.00 62.50,65.00" fill="#111111"/>
  <polygon data-seg="D" points="92.00,77.50 87.00,82.50 87.00,119.50 92.00,124.50 97.00,119.50 97.00,82.50" fill="#111111"/>
  <polygon data-seg="F" points="57.50,132.00 62.50,137.00 79.50,137.00 84.50,132.00 79.50,127.00 62.50,127.00" fill="#111111"/>
</svg>
